<?xml version="1.0" standalone="no"?><!DOCTYPE svg PUBLIC "-//W3C//DTD SVG 1.1//EN" "http://www.w3.org/Graphics/SVG/1.1/DTD/svg11.dtd"><svg class="icon" width="240px" height="240.00px" viewBox="0 0 1024 1024" version="1.1" xmlns="http://www.w3.org/2000/svg"><path d="M249.769 130.144c-64.259 0-116.533 52.274-116.533 116.533s52.274 116.533 116.533 116.533 116.533-52.274 116.533-116.533-52.274-116.533-116.533-116.533zM249.769 331.367c-46.697 0-84.66-37.963-84.66-84.658s37.963-84.658 84.658-84.658 84.658 37.963 84.658 84.658-37.963 84.658-84.658 84.658zM926.368 0h-828.737c-52.816 0-95.623 42.807-95.623 95.623v828.737c0 52.816 42.807 95.623 95.623 95.623h610.556l3.952 4.016 4.080-4.016h210.149c52.816 0 95.623-42.807 95.623-95.623v-828.737c0-52.816-42.807-95.623-95.623-95.623zM97.632 988.109c-35.158 0-63.749-28.591-63.749-63.749v-55.908l279.444-249.482 363.497 369.139h-579.191zM990.117 924.361c0 35.158-28.591 63.749-63.749 63.749h-204.825l-250.279-254.167 314.921-313.008 203.933 203.933v299.493zM990.117 579.765l-203.869-203.869-337.328 335.353-134.192-136.295-280.846 250.757v-730.085c0-35.158 28.591-63.749 63.749-63.749h828.737c35.158 0 63.749 28.591 63.749 63.749v484.142z" fill="#d9d9d9" /></svg>